<mxfile host="app.diagrams.net" modified="2025-08-25T12:00:00.000Z" agent="python" version="24.7.7" type="device">
  <diagram id="classes" name="Class Diagram">
    <mxGraphModel><root>
      <mxCell id="0"/><mxCell id="1" parent="0"/>
      <mxCell id="clsTask" value="Task|id:int; title:str; description:str; status:Status; priority:int; due_date:date" style="shape=umlClass;whiteSpace=wrap;html=1;" vertex="1" parent="1">
        <mxGeometry x="60" y="60" width="300" height="100" as="geometry"/>
      </mxCell>
      <mxCell id="clsRepo" value="TaskRepository|create(Task); get(int); list(status, priority); update(int, Task); delete(int)" style="shape=umlClass;whiteSpace=wrap;html=1;" vertex="1" parent="1">
        <mxGeometry x="400" y="60" width="360" height="120" as="geometry"/>
      </mxCell>
      <mxCell id="assoc" edge="1" parent="1" source="clsRepo" target="clsTask">
        <mxGeometry relative="1" as="geometry"/>
      </mxCell>
    </root></mxGraphModel>
  </diagram>
</mxfile>
